<svg xmlns="http://www.w3.org/2000/svg" width="91" height="91" viewBox="0 0 91 91">
  <g id="Group_3627" data-name="Group 3627" transform="translate(-433 -6417)">
    <circle id="Ellipse_1798" data-name="Ellipse 1798" cx="45.5" cy="45.5" r="45.5" transform="translate(433 6417)" fill="#279163"/>
    <g id="noun_Charminar_117601" transform="translate(459.35 6434.773)">
      <path id="Path_10121" data-name="Path 10121" d="M26.443,43.507V41.676h-.488v-1c0-.193.332-.382.488-.459V38.575h-.488v-1c0-.193.332-.382.488-.46V35.958H25.116v-7.6h.838V26.725h-.476v-.851c0-.21.452-.409.476-.42V24.171H24.826V18.56h.634V16.869h-.4v-.721c0-.177.385-.346.4-.355v-.737h-.75V11.526a2.3,2.3,0,0,0-.685-3.1l-.1-.064c-.358-.223-1.1-.689-1.1-1.22V5h-.2V7.145c0,.543-.784,1.026-1.118,1.232l-.092.059a2.287,2.287,0,0,0-.67,3.092v3.529h-.756V15.8l.01,0h0s.409.176.409.358v.721h-.42v1.691h.634v5.611H19.49v1.285l.012-.006h0s.483.208.483.424v.851h-.5v1.631h.749v7.5H18.912v1.216l.009,0v0s.569.245.569.5v1h-.578v1.6l.009,0v0s.569.245.569.5v1h-.578V43.61h.1c.62,0,.893.668.932.774v16.1H25.41l.006-16.139C25.449,44.259,25.748,43.507,26.443,43.507ZM23.69,13.622c0-.182.409-.358.409-.358s.409.176.409.358v1.071H23.69Zm-1.368,0c0-.182.409-.358.409-.358s.411.176.411.358v1.071h-.819Zm0,2.526c0-.182.409-.358.409-.358s.411.176.411.358v.721h-.819Zm-.073,9.726c0-.215.483-.424.483-.424s.485.208.485.424v.851h-.967S22.248,26.088,22.248,25.874Zm-.858,15.8H20.253v-1c0-.252.569-.5.569-.5s.569.245.569.5Zm0-3.1H20.253v-1c0-.252.569-.5.569-.5s.569.246.569.5Zm.209-11.85h-.967v-.851c0-.215.484-.424.484-.424s.483.208.483.424Zm.172-9.856h-.818v-.721c0-.182.41-.358.41-.358s.408.176.408.358Zm0-2.175h-.818V13.623c0-.182.41-.358.41-.358s.408.176.408.358S21.772,14.694,21.772,14.694Zm1.52,26.982H22.153v-1c0-.252.569-.5.569-.5s.569.245.569.5Zm0-3.1H22.153v-1c0-.252.569-.5.569-.5s.569.246.569.5Zm.4-22.428c0-.182.409-.358.409-.358s.409.176.409.358v.721H23.69Zm.174,9.726c0-.215.483-.424.483-.424s.484.208.484.424v.851h-.967Zm1.329,15.8H24.054v-1c0-.252.569-.5.569-.5s.569.245.569.5Zm0-3.1H24.054v-1c0-.252.569-.5.569-.5s.569.246.569.5Z" transform="translate(-18.912 -5)" fill="#fff"/>
      <path id="Path_10122" data-name="Path 10122" d="M35.489,36.439V31.852h.521V30.469h-.33v-.59c0-.145.314-.284.33-.291v-.6H35.4V26.1a1.878,1.878,0,0,0-.559-2.533l-.084-.052c-.293-.182-.9-.563-.9-1V20.764h-.164v1.754c0,.443-.641.838-.914,1.007l-.075.047a1.869,1.869,0,0,0-.547,2.528v2.885h-.619v.6l.008,0h0s.335.144.335.293v.59h-.344v1.383h.519v4.587m2.51-8.625c0-.149.335-.293.335-.293s.334.144.334.293v.876h-.669Zm-1.119,0c0-.149.336-.293.336-.293s.335.144.335.293v.876h-.671Zm0,2.065c0-.149.336-.293.336-.293s.335.144.335.293v.59h-.671Zm-.449.59h-.669v-.59c0-.149.335-.293.335-.293s.334.144.334.293Zm0-1.779h-.669v-.876c0-.149.335-.293.335-.293s.334.144.334.293Zm1.568,1.189c0-.149.335-.293.335-.293s.334.144.334.293v.59h-.669Z" transform="translate(-23.752 -11.046)" fill="#fff"/>
      <path id="Path_10123" data-name="Path 10123" d="M69.9,44.344,69.9,60.483h5.466V44.38c.038-.106.313-.774.932-.774h.1V41.676h-.578v-1c0-.252.569-.5.569-.5v0l.009,0v-1.6h-.578v-1c0-.252.569-.5.569-.5v0l.009,0V35.857H75.077v-7.5h.749V26.724h-.5v-.851c0-.215.482-.424.482-.424h0l.012.006V24.169H74.7V18.558h.634V16.867h-.42v-.721c0-.182.409-.358.409-.358h0a.045.045,0,0,0,.01,0v-.739h-.756V11.525a2.286,2.286,0,0,0-.67-3.092l-.092-.059c-.334-.207-1.117-.69-1.117-1.232V5h-.2V7.145c0,.531-.743,1-1.1,1.22l-.1.064a2.3,2.3,0,0,0-.685,3.1v3.529h-.75v.737c.018.009.4.178.4.355v.721h-.4V18.56h.634v5.611H69.362v1.283c.023.011.476.211.476.42v.851h-.476v1.631H70.2v7.6H68.874v1.155c.157.078.488.267.488.46v1h-.489v1.639c.157.078.488.266.488.459v1h-.488v1.831C69.568,43.507,69.866,44.259,69.9,44.344Zm1.727-29.65h-.819V13.623c0-.182.409-.358.409-.358s.409.176.409.358S71.626,14.694,71.626,14.694Zm1.368,0h-.819V13.623c0-.182.411-.358.411-.358s.408.176.408.358Zm0,2.175h-.819v-.721c0-.182.411-.358.411-.358s.408.176.408.358Zm.073,9.856H72.1v-.851c0-.215.484-.424.484-.424s.483.208.483.424Zm.857,13.948c0-.252.57-.5.57-.5s.569.245.569.5v1H73.924S73.924,40.925,73.924,40.673Zm0-3.1c0-.252.57-.5.57-.5s.569.246.569.5v1H73.924S73.924,37.825,73.924,37.573Zm-.208-11.7c0-.215.483-.424.483-.424s.483.208.483.424v.851h-.966Zm-.173-9.726c0-.182.408-.358.408-.358s.409.176.409.358v.721h-.817Zm0-2.526c0-.182.408-.358.408-.358s.409.176.409.358v1.071h-.817S73.543,13.8,73.543,13.622Zm-1.52,27.051c0-.252.569-.5.569-.5s.569.245.569.5v1H72.024Zm0-3.1c0-.252.569-.5.569-.5s.569.246.569.5v1H72.024Zm-.4-20.7h-.819v-.721c0-.182.409-.358.409-.358s.409.176.409.358S71.626,16.869,71.626,16.869Zm-.173,9.856h-.967v-.851c0-.215.484-.424.484-.424s.483.208.483.424Zm-1.33,13.948c0-.252.57-.5.57-.5s.569.245.569.5v1H70.123Zm0-3.1c0-.252.57-.5.57-.5s.569.246.569.5v1H70.123Z" transform="translate(-38.073 -5)" fill="#fff"/>
      <path id="Path_10124" data-name="Path 10124" d="M54.822,51.762V46.727H29.3v5.035h1.217v-.987c0-.253.569-.5.569-.5s.569.245.569.5v1H30.627v7.932h-.2c-.531,0-.784.57-.833.691V76.486h5.714V69.608c0-3.3,3.307-4.633,4.719-5.2.126-.051.236-.1.326-.134a12.139,12.139,0,0,0,1.663-.849l.045-.028.045.03a12.153,12.153,0,0,0,1.663.848l.325.134c1.412.567,4.719,1.9,4.719,5.2v6.877h5.714V60.4c-.049-.121-.3-.691-.833-.691h-.2V51.777H52.467v-1c0-.253.569-.5.569-.5s.57.245.57.5v.987Zm-4.184-4.574h1.138v1.338H50.638V47.189Zm-3.658,0h1.139v1.338H46.98Zm-3.659,0h1.138v1.338H43.321Zm-1.828,0H42.63v1.338H41.492Zm0,3.587c0-.253.569-.5.569-.5s.569.245.569.5v1H41.492Zm-3.658-3.587h1.138v1.338H37.834Zm-3.659,0h1.138v1.338H34.175Zm-3.659,1.338V47.188h1.138v1.338ZM33,75.718H31.545V73.94c0-.281.726-.555.726-.555s.725.274.725.555S33,75.718,33,75.718Zm0-4.667H31.545V69.272c0-.282.726-.555.726-.555s.725.274.725.555S33,71.05,33,71.05Zm0-4.377H31.545V65.555c0-.282.726-.556.726-.556s.725.274.725.556S33,66.673,33,66.673Zm0-3.717H31.545V61.837c0-.282.726-.555.726-.555s.725.274.725.555S33,62.956,33,62.956Zm.364-4.7H31.408V56.266c0-.5.975-.988.975-.988s.975.488.975.988Zm.125-6.477H32.346v-1c0-.253.568-.5.568-.5s.57.245.57.5Zm0-3.251H32.346V47.188h1.138Zm.691,2.248c0-.252.569-.5.569-.5s.569.246.569.5v1H34.175Zm2.409,7.48H34.634V56.266c0-.5.975-.988.975-.988s.975.488.975.988Zm.558-6.477H36v-1c0-.252.569-.5.569-.5s.569.245.569.5Zm0-3.251H36V47.188h1.138Zm.692,2.248c0-.252.57-.5.57-.5s.568.246.568.5v1H37.834Zm1.977,7.48H37.86V56.266c0-.5.975-.988.975-.988s.975.489.975.988Zm.991-6.477H39.664v-1c0-.252.568-.5.568-.5s.57.245.57.5Zm0-3.251H39.664V47.188H40.8Zm2.235,9.728H41.086V56.266c0-.5.975-.988.975-.988s.975.488.975.988Zm.284-6.477v-1c0-.252.57-.5.57-.5s.568.245.568.5v1Zm2.941,6.477H44.311V56.266c0-.5.975-.988.975-.988s.975.488.975.988Zm.027-6.477H45.15v-1c0-.252.568-.5.568-.5s.57.246.57.5Zm0-3.251H45.15V47.188h1.138Zm.692,3.251v-1c0-.252.57-.5.57-.5s.569.245.569.5v1Zm2.508,6.477H47.538V56.266c0-.5.975-.988.975-.988s.975.488.975.988Zm.458-6.477H48.809v-1c0-.252.57-.5.57-.5s.568.246.568.5Zm0-3.251H48.809V47.188h1.138Zm.692,2.249c0-.253.57-.5.57-.5s.568.245.568.5v1H50.638S50.638,51.027,50.638,50.775Zm1.939,24.942H51.127V73.94c0-.281.725-.555.725-.555s.726.274.726.555Zm0-4.667H51.127V69.272c0-.282.725-.555.725-.555s.726.274.726.555Zm0-4.377H51.127V65.555c0-.282.725-.556.725-.556s.726.274.726.556Zm0-3.717H51.127V61.837c0-.282.725-.555.725-.555s.726.274.726.555Zm.136-6.69v1.989h-1.95V56.266c0-.5.975-.988.975-.988S52.713,55.767,52.713,56.266Zm-.245-7.739V47.188h1.138v1.338Z" transform="translate(-22.896 -21.003)" fill="#fff"/>
      <path id="Path_10125" data-name="Path 10125" d="M65.163,36.439V31.852h.519V30.469h-.344v-.59c0-.149.335-.293.335-.293h0l.008,0v-.6h-.619V26.1a1.867,1.867,0,0,0-.547-2.528l-.075-.047c-.273-.168-.914-.564-.914-1.007V20.764h-.165v1.754c0,.435-.607.815-.9,1l-.085.052a1.877,1.877,0,0,0-.559,2.533v2.885H61.2v.6c.015.007.329.145.329.291v.59H61.2v1.383h.521v4.587m.928-7.749h-.668v-.876c0-.149.334-.293.334-.293s.335.144.335.293Zm1.119,0H63.1v-.876c0-.149.335-.293.335-.293s.336.144.336.293Zm0,1.779H63.1v-.59c0-.149.335-.293.335-.293s.336.144.336.293Zm.449-.59c0-.149.335-.293.335-.293s.335.144.335.293v.59h-.67Zm0-2.065c0-.149.335-.293.335-.293s.335.144.335.293v.876h-.67Zm-1.568,2.655h-.668v-.59c0-.149.334-.293.334-.293s.335.144.335.293Z" transform="translate(-35.132 -11.046)" fill="#fff"/>
    </g>
  </g>
</svg>
