<svg xmlns="http://www.w3.org/2000/svg" width="916.56" height="563.623" viewBox="0 0 916.56 563.623">
  <g id="Group_3619" data-name="Group 3619" transform="translate(-140 -1880.42)">
    <g id="Group_154" data-name="Group 154" transform="translate(140 1909.573)">
      <rect id="Rectangle_1305" data-name="Rectangle 1305" width="154.115" height="151.002" transform="translate(0 154.115) rotate(-90)" fill="#e1e1e1"/>
      <path id="Path_16157" data-name="Path 16157" d="M47.837,0S-2.532,36.837.1,80.441s47.738,72.922,47.738,72.922Z" transform="translate(0 49.086) rotate(-90)" fill="#fff"/>
      <ellipse id="Ellipse_13" data-name="Ellipse 13" cx="30.356" cy="30.356" rx="30.356" ry="30.356" transform="translate(43.588 116.754) rotate(-90)" fill="#fff"/>
    </g>
    <g id="Group_143" data-name="Group 143" transform="translate(326.71 1909.573)">
      <rect id="Rectangle_1306" data-name="Rectangle 1306" width="154.115" height="151.002" fill="#e1e1e1"/>
      <path id="Path_16158" data-name="Path 16158" d="M-1036.5,2093.585s-50.369,36.837-47.738,80.441,47.738,72.923,47.738,72.923Z" transform="translate(1189.363 -2093.585)" fill="#fff"/>
      <ellipse id="Ellipse_14" data-name="Ellipse 14" cx="30.356" cy="30.356" rx="30.356" ry="30.356" transform="translate(37.361 43.588)" fill="#fff"/>
    </g>
    <path id="Path_16167" data-name="Path 16167" d="M230.066,1972s28.126,16.169,57.535,16.169S347.7,1972,347.7,1972" transform="translate(163.282 104.356)" fill="none" stroke="#707070" stroke-width="1" stroke-dasharray="4" opacity="0.53"/>
    <path id="Path_16168" data-name="Path 16168" d="M230.066,1990.29S258.044,1972,287.3,1972s59.78,18.291,59.78,18.291" transform="translate(12.813 -91.08)" fill="none" stroke="#707070" stroke-width="1" stroke-dasharray="4" opacity="0.53"/>
    <path id="Polygon_2" data-name="Polygon 2" d="M3.083,0,6.165,5.138H0Z" transform="matrix(-0.966, 0.259, -0.259, -0.966, 515.664, 2078.04)" fill="#303030" opacity="0.53"/>
    <path id="Polygon_3" data-name="Polygon 3" d="M3.311,0,6.622,5.518H0Z" transform="matrix(0.966, 0.259, -0.259, 0.966, 358.522, 1895.689)" fill="#303030" opacity="0.53"/>
    <g id="Group_155" data-name="Group 155" transform="translate(495.676 1909.573)">
      <rect id="Rectangle_1306-2" data-name="Rectangle 1306" width="154.115" height="151.002" transform="translate(176.546) rotate(90)" fill="#279163" opacity="0.16"/>
      <g id="Group_153" data-name="Group 153" transform="translate(0 27.356)">
        <g id="Group_146" data-name="Group 146">
          <path id="Path_15851" data-name="Path 15851" d="M16.221,207.76A14.428,14.428,0,0,0,30.3,192.2c-2.223-29.634,2.963-60.75,9.631-85.939L50.3,236.654c0,2.223,1.482,3.7,3.7,4.445h0L39.187,370.748a21.273,21.273,0,1,0,42.229,5.186L96.973,241.1h11.113l16.3,134.835a21.273,21.273,0,1,0,42.229-5.186L151.056,241.1h0c2.223,0,3.7-2.223,3.7-4.445L165.132,103.3c7.409,25.93,13.335,58.527,10.372,88.9a14.154,14.154,0,0,0,28.152,2.963c5.927-71.122-28.893-148.911-30.375-151.875-4.445-9.631-73.344-58.527-137.058-5.186-8.89,6.668-40.006,92.607-34.079,157.8C2.885,202.574,8.812,207.76,16.221,207.76ZM119.94,27.733c0,.741-6.668,22.226-6.668,21.485H94.01c0-.741-6.668-22.966-6.668-21.485C98.455,22.547,108.827,22.547,119.94,27.733ZM92.528,54.4h21.485l5.186,75.567h0l-16.3,20-15.558-20h0C87.342,121.822,84.379,157.382,92.528,54.4Z" transform="translate(-1.399 79.69)" fill="#279163"/>
          <ellipse id="Ellipse_8" data-name="Ellipse 8" cx="40.747" cy="40.747" rx="40.747" ry="40.747" transform="translate(60.754)" fill="#279163"/>
        </g>
        <path id="Path_16160" data-name="Path 16160" d="M0,.124S2.3-4.5,16.326-4.5,33.908.124,33.908.124L26.287,21.7H6.434Z" transform="translate(85.912 107.63)" fill="#fff"/>
        <circle id="Ellipse_26" data-name="Ellipse 26" cx="3.083" cy="3.083" r="3.083" transform="translate(98.242 234.14)" fill="#fff"/>
        <circle id="Ellipse_27" data-name="Ellipse 27" cx="3.083" cy="3.083" r="3.083" transform="translate(98.242 246.47)" fill="#fff"/>
        <circle id="Ellipse_28" data-name="Ellipse 28" cx="3.083" cy="3.083" r="3.083" transform="translate(98.242 269.076)" fill="#fff"/>
        <path id="Path_16164" data-name="Path 16164" d="M0,.206,33.134,0l3.626,4.811L3.021,5.206Z" transform="matrix(0.799, 0.602, -0.602, 0.799, 89.315, 155.389)" fill="#279163" opacity="0.09"/>
        <path id="Path_16165" data-name="Path 16165" d="M0,.224,34.31,0l2.535,3.364-34.681.4Z" transform="matrix(0.799, 0.602, -0.602, 0.799, 88.892, 163.494)" fill="#279163" opacity="0.09"/>
      </g>
    </g>
    <path id="Subtraction_2" data-name="Subtraction 2" d="M475.957,242H.043C.014,240.462,0,238.931,0,237.446a238.666,238.666,0,0,1,4.835-47.854,235.85,235.85,0,0,1,35.811-84.9A238.269,238.269,0,0,1,457.3,145.021a235.846,235.846,0,0,1,13.868,44.571A238.671,238.671,0,0,1,476,237.446c0,1.509-.014,3.041-.043,4.553Z" transform="translate(835.56 2432.043) rotate(180)" fill="#fff"/>
    <path id="Subtraction_3" data-name="Subtraction 3" d="M243.978,123H.022C.007,122.218,0,121.44,0,120.685A119.285,119.285,0,0,1,20.836,53.209,122.117,122.117,0,0,1,97.413,2.452a124.506,124.506,0,0,1,49.175,0,122.111,122.111,0,0,1,76.577,50.757A119.238,119.238,0,0,1,244,120.685c0,.767-.007,1.546-.022,2.314Z" transform="translate(719.56 2328.043) rotate(180)" fill="#279163" opacity="0.05"/>
    <rect id="Rectangle_2105" data-name="Rectangle 2105" width="222" height="4" rx="2" transform="translate(487.56 2193.043)" fill="#279163" opacity="0.55"/>
    <rect id="Rectangle_2108" data-name="Rectangle 2108" width="32" height="4" rx="2" transform="translate(424.56 2205.043)" fill="#e9e9e9"/>
    <rect id="Rectangle_2109" data-name="Rectangle 2109" width="14" height="4" rx="2" transform="translate(407.56 2205.043)" fill="#e9e9e9"/>
    <circle id="Ellipse_30" data-name="Ellipse 30" cx="3" cy="3" r="3" transform="translate(398.56 2204.043)" fill="#e9e9e9"/>
    <g id="Group_158" data-name="Group 158" transform="translate(592.176 2405.997) rotate(-90)">
      <rect id="Rectangle_2111" data-name="Rectangle 2111" width="32.881" height="4.11" rx="2.055" transform="translate(25.688 1.028)" fill="#e9e9e9"/>
      <rect id="Rectangle_2110" data-name="Rectangle 2110" width="13.358" height="4.11" rx="2.055" transform="translate(9.248 1.028)" fill="#e9e9e9"/>
      <circle id="Ellipse_31" data-name="Ellipse 31" cx="3.083" cy="3.083" r="3.083" transform="translate(0 0)" fill="#e9e9e9"/>
    </g>
    <g id="Group_159" data-name="Group 159" transform="translate(760.031 2323.381) rotate(-149)">
      <rect id="Rectangle_2111-2" data-name="Rectangle 2111" width="32.881" height="4.11" rx="2.055" transform="translate(25.688 1.028)" fill="#e9e9e9"/>
      <rect id="Rectangle_2110-2" data-name="Rectangle 2110" width="13.358" height="4.11" rx="2.055" transform="translate(9.248 1.028)" fill="#e9e9e9"/>
      <circle id="Ellipse_31-2" data-name="Ellipse 31" cx="3.083" cy="3.083" r="3.083" fill="#e9e9e9"/>
    </g>
    <g id="Group_162" data-name="Group 162" transform="translate(422.172 2318.096) rotate(-31)">
      <rect id="Rectangle_2111-3" data-name="Rectangle 2111" width="32.881" height="4.11" rx="2.055" transform="translate(25.688 1.027)" fill="#e9e9e9"/>
      <rect id="Rectangle_2110-3" data-name="Rectangle 2110" width="13.358" height="4.11" rx="2.055" transform="translate(9.248 1.028)" fill="#e9e9e9"/>
      <ellipse id="Ellipse_31-3" data-name="Ellipse 31" cx="3.083" cy="3.083" rx="3.083" ry="3.083" transform="translate(0 0)" fill="#e9e9e9"/>
    </g>
    <g id="Group_160" data-name="Group 160" transform="translate(801.278 2210.766) rotate(180)">
      <rect id="Rectangle_2111-4" data-name="Rectangle 2111" width="33" height="4" rx="2" transform="translate(25.718 0.723)" fill="#e9e9e9"/>
      <rect id="Rectangle_2110-4" data-name="Rectangle 2110" width="13" height="4" rx="2" transform="translate(9.718 0.723)" fill="#e9e9e9"/>
      <circle id="Ellipse_31-4" data-name="Ellipse 31" cx="3" cy="3" r="3" transform="translate(-0.282 -0.277)" fill="#e9e9e9"/>
    </g>
    <text id="DevOps_Engineer" data-name="DevOps Engineer" transform="translate(189.56 2214.043)" fill="#279163" font-size="22" font-family="Poppins-SemiBold, Poppins" font-weight="600"><tspan x="0" y="0">DevOps Engineer</tspan></text>
    <text id="DevOps_Architect" data-name="DevOps Architect" transform="translate(211.615 2333.437)" fill="#279163" font-size="22" font-family="Poppins-SemiBold, Poppins" font-weight="600"><tspan x="0" y="0">DevOps Architect</tspan></text>
    <text id="DevOps_Consultant" data-name="DevOps Consultant" transform="translate(483.56 2436.043)" fill="#279163" font-size="22" font-family="Poppins-SemiBold, Poppins" font-weight="600"><tspan x="0" y="0">DevOps Consultant</tspan></text>
    <text id="System_Engineer" data-name="System Engineer" transform="translate(774.423 2333.437)" fill="#279163" font-size="22" font-family="Poppins-SemiBold, Poppins" font-weight="600"><tspan x="0" y="0">System Engineer</tspan></text>
    <text id="System_Administrator" data-name="System Administrator" transform="translate(810.56 2218.043)" fill="#279163" font-size="22" font-family="Poppins-SemiBold, Poppins" font-weight="600"><tspan x="0" y="0">System Administrator</tspan></text>
  </g>
</svg>
